<?xml version="1.0" encoding="utf-8"?><!DOCTYPE svg PUBLIC "-//W3C//DTD SVG 1.1//EN" "http://www.w3.org/Graphics/SVG/1.1/DTD/svg11.dtd"><svg version="1.1" xmlns="http://www.w3.org/2000/svg" xmlns:xlink="http://www.w3.org/1999/xlink" x="0px" y="0px" viewBox="11.311 0.178 77.448 100" enable-background="new 11.311 0.178 77.448 100" xml:space="preserve"><g><path d="M30.798,57.993c0,3.023,3.038,7.339,8.211,7.339c4.767,0,6.917-3.017,6.917-4.01L30.798,57.993z"></path><path d="M69.201,57.993c0,3.023-3.037,7.339-8.211,7.339c-4.767,0-6.918-3.017-6.918-4.01L69.201,57.993z"></path><path d="M83.483,23.07c2.104,4.424,0.861,10.795-1.475,11.166c-9.271,1.478,4.104-14.426-3.793-28.225
		c0.105,4.141-3.011,19.443-6.295,17.803c-3.425-1.714,3.317-7.087-1.828-13.828c-0.227,4.228-4.061,7.572-6.287,7.429
		c-2.039-0.137-2.243-3.397-1.869-4.809c1.009-3.812,3.404-10.327,6.948-12.428c-6.054,0.203-15.312,4.087-18.873,16.874
		c-4.762-3.016-3.178-13.043-0.391-16.855c-5.373,1.507-9.63,6-10.746,11.406c-0.228,1.096,0.125,10.5-2.376,7.897
		c-4.236-4.417,1.061-7.421-8.475-13.247c3.529,8.123-3.423,17.116-3.367,21c-1.568-1.25-3.163-2.185-5.006-2.981
		c-2.222-0.959-4.885-1.258-7.285-0.986c2.894-0.329,5.721,6.15,5.551,8.463c-0.273,3.71-2.686,7.225-2.686,11.021
		c0,2.113,0.562,3.997,1.391,5.775c-5.308,2.458-5.312,10.201-5.312,13.059c0,6.378,3.833,12.658,8.428,14.748
		C24.574,92.081,42.773,100.178,50,100.178c7.21,0,25.352-8.066,30.233-23.729c4.493-1.803,8.456-7.318,8.456-14.843
		c0-6.37-1.535-9.93-3.61-11.837C89.281,42,91.22,29.883,83.483,23.07z M77.083,69.344c-1.829,0-3.407,1.279-3.785,3.068
		C70.422,85.999,53.772,92.44,50,92.44s-20.424-6.441-23.298-20.028c-0.372-1.76-1.907-3.027-3.698-3.066
		c-1.173-0.338-3.958-3.699-3.958-7.74c0-5.201,0.897-6.015,0.919-6.036c0,0,0.115-0.052,0.419-0.052c0.137,0,0.268-0.025,0.4-0.039
		c1.586,2.572,2.918,5.259,3.015,8.47c8.025-12.594-6.231-10.935,7.609-28.511c0.256,3.966,2.494,8.168,6.809,9.439
		c-2.388-7.565,0.775-9.877,4.621-14.577c0.344,2.487-0.639,8.683,4.7,13.783c-0.797-12.189,7.213-12.151,8.407-18.446
		c1.987,5.18,0.839,9.574,2.993,12.499c1.714,2.327,6.195,3.963,7.794,6.317c-1.762-6.653,0.104-9.269-1.159-13.057
		c6.007,4.631,8.322,7.058,8.606,17.067c0.121,4.23-3.127,10,3.121,14.438c-0.852-2.478,1.039-4.873,2.896-6.813
		c0.321,0.708,0.755,2.264,0.755,5.521C80.952,65.999,78.373,69.344,77.083,69.344z"></path></g></svg>